<?xml version="1.0" encoding="UTF-8" standalone="no"?>
<!DOCTYPE svg PUBLIC "-//W3C//DTD SVG 1.1//EN" "http://www.w3.org/Graphics/SVG/1.1/DTD/svg11.dtd">
<svg width="100%" height="100%" viewBox="0 0 4500 4500" version="1.1" xmlns="http://www.w3.org/2000/svg" xmlns:xlink="http://www.w3.org/1999/xlink" xml:space="preserve" xmlns:serif="http://www.serif.com/" style="fill-rule:evenodd;clip-rule:evenodd;stroke-linejoin:round;stroke-miterlimit:1.41421;">
    <g transform="matrix(1,0,0,1,-17,250)">
        <path d="M1276.55,2240L1293,2453L1450,2494L1276.55,2240Z" style="fill:rgb(116,116,116);fill-opacity:0.74902;"/>
        <path d="M1618.72,2937L1450,2494L1440,2759L1618.72,2937Z" style="fill:rgb(41,41,41);fill-opacity:0.74902;"/>
        <clipPath id="_clip1">
            <path d="M1618.72,2937L1450,2494L1440,2759L1618.72,2937Z"/>
        </clipPath>
        <g clip-path="url(#_clip1)">
            <path d="M2521,2862L2219,3000L2217.8,3105L2525,2939L2521,2862Z" style="fill:rgb(45,45,45);fill-opacity:0.74902;"/>
        </g>
        <path d="M1867,3104L1625.42,2939L1876.96,2996L1867,3104Z" style="fill:none;"/>
        <path d="M1239.85,2130L1407,2195L1269,2247L1239.85,2130Z" style="fill:none;"/>
        <clipPath id="_clip2">
            <path d="M1239.85,2130L1407,2195L1269,2247L1239.85,2130Z"/>
        </clipPath>
        <g clip-path="url(#_clip2)">
            <path d="M1879.27,3000L2063,3021.5L2061.41,3139L1867,3104L1879.27,3000Z" style="fill:rgb(24,24,24);fill-opacity:0.74902;"/>
        </g>
        <path d="M1227.84,1935.07L1406.84,2190L1243.6,2131.38L1227.84,1935.07Z" style="fill:rgb(105,105,105);fill-opacity:0.74902;"/>
        <path d="M1228,1724L1312.88,1762L1359.36,1923L1213,1935L1228,1724Z" style="fill:none;"/>
        <path d="M1406.84,2190L1359.46,1919L1227.84,1935.07L1406.84,2190Z" style="fill:rgb(95,95,95);fill-opacity:0.74902;"/>
        <path d="M1450,2494L1406.84,2190L1396.72,2193.89L1276.55,2240L1450,2494Z" style="fill:rgb(113,113,113);fill-opacity:0.74902;"/>
        <path d="M1440,2759L1293,2453L1450,2494L1440,2759Z" style="fill:rgb(93,93,93);fill-opacity:0.74902;"/>
        <path d="M2219,3000L2220,3104L2061.41,3139L2063,3021.5L2219,3000Z" style="fill:none;"/>
        <path d="M2609,2862L2525,2939L2521,2862L2609,2862Z" style="fill:none;"/>
        <path d="M2730,2713L2609,2862L2521,2862L2730,2713Z" style="fill:none;"/>
        <path d="M2863,2239L2730,2713L2521,2862L2863,2239Z" style="fill:none;"/>
        <path d="M2666,2349L2863,2239L2521,2862L2666,2349Z" style="fill:none;"/>
        <path d="M2838.79,2161L2863,2239L2666,2349L2838.79,2161Z" style="fill:none;"/>
        <path d="M2936.16,2012L2838.79,2161L2863,2239L2936.16,2012Z" style="fill:none;"/>
        <path d="M2328,2814L2221.67,2994L2521,2862L2328,2814Z" style="fill:rgb(241,241,241);fill-opacity:0.74902;"/>
        <path d="M2081.77,2816L2067.96,3020.5L2221.67,2994L2081.77,2816Z" style="fill:rgb(140,140,140);fill-opacity:0.74902;"/>
        <path d="M2328,2814L2081.77,2816L2221.67,2994L2328,2814Z" style="fill:white;fill-opacity:0.74902;"/>
        <path d="M1882,3000L2081.77,2816L2067.96,3020.5L1882,3000Z" style="fill:rgb(94,94,94);fill-opacity:0.74902;"/>
        <path d="M1752.06,2778L1882,3000L1618.72,2937L1752.06,2778Z" style="fill:rgb(48,48,48);fill-opacity:0.74902;"/>
        <path d="M2081.77,2816L1752.06,2778L1882,3000L2081.77,2816Z" style="fill:rgb(91,91,91);fill-opacity:0.74902;"/>
        <path d="M1450,2493L1752.06,2778L1618.72,2937L1450,2493Z" style="fill:rgb(64,64,64);fill-opacity:0.74902;"/>
        <path d="M2328,2814L2464,2665L2519,2866L2328,2814Z" style="fill:none;"/>
        <path d="M2665,2346L2537,2610L2519,2866L2665,2346Z" style="fill:none;"/>
        <path d="M2464,2665L2537,2610L2519,2866L2468.47,2681.35L2464,2665Z" style="fill:none;"/>
        <path d="M2452.34,2569L2464,2665L2533,2610L2452.34,2569Z" style="fill:rgb(144,144,144);fill-opacity:0.74902;"/>
        <path d="M2670.07,2340.7L2533,2610L2452.34,2569L2670.07,2340.7Z" style="fill:rgb(209,209,209);fill-opacity:0.74902;"/>
        <path d="M2689.02,2158L2838.2,2165L2665,2346L2689.02,2158Z" style="fill:none;"/>
        <path d="M2121,2572L2237,2525L2272,2610L2130,2665L2121,2572Z" style="fill:none;"/>
        <path d="M2386.86,2524L2272,2610L2241.21,2524L2386.86,2524Z" style="fill:rgb(232,232,232);fill-opacity:0.74902;"/>
        <path d="M2452.34,2569L2386.86,2524L2272,2610L2464,2665L2452.34,2569Z" style="fill:rgb(140,140,140);fill-opacity:0.74902;"/>
        <path d="M2328,2814L2272,2610L2464,2665L2328,2814Z" style="fill:none;"/>
        <path d="M2130,2665L2328,2814L2272,2610L2130,2665Z" style="fill:rgb(225,225,225);fill-opacity:0.74902;"/>
        <path d="M2087.21,2761.12L2130,2665L2025,2686L2087.21,2761.12Z" style="fill:rgb(140,140,140);fill-opacity:0.74902;"/>
        <path d="M2328,2814L2087.21,2761.12L2081.77,2816L2328,2814Z" style="fill:rgb(208,208,208);fill-opacity:0.74902;"/>
        <path d="M1752.06,2778L2025.36,2685.38L2087.15,2761L1752.06,2778Z" style="fill:rgb(96,96,96);fill-opacity:0.74902;"/>
        <path d="M2040.98,2555.74L2123.02,2566L2130,2665L2025,2686L2040.98,2555.74Z" style="fill:rgb(196,196,196);fill-opacity:0.74902;"/>
        <path d="M1775.15,2522L1917.77,2538L1956,2648L1775.15,2522Z" style="fill:none;"/>
        <path d="M2025.51,2685.66L1952.9,2637L1936.37,2542.39L2040.98,2555.74L2025.51,2685.66Z" style="fill:rgb(87,87,87);fill-opacity:0.74902;"/>
        <path d="M1752.06,2778L1779.58,2522.37L1952.9,2637L1752.06,2778Z" style="fill:rgb(52,52,52);fill-opacity:0.74902;"/>
        <path d="M1450,2493L1779.58,2522.37L1752.06,2778L1450,2493Z" style="fill:rgb(97,97,97);fill-opacity:0.74902;"/>
        <path d="M2125.09,2489L2123.02,2566L2040.98,2555.74L2125.09,2489Z" style="fill:rgb(171,171,171);fill-opacity:0.74902;"/>
        <path d="M2241.58,2523.87L2123.02,2566L2125.09,2489L2241.58,2523.87Z" style="fill:rgb(198,198,198);fill-opacity:0.74902;"/>
        <path d="M1779.58,2522.37L2125.09,2489L2040.98,2555.74L1779.58,2522.37Z" style="fill:rgb(37,37,37);fill-opacity:0.74902;"/>
        <path d="M2067.42,2361.51L2050.68,2445L2125.09,2489L2150,2363.51L2067.42,2361.51Z" style="fill:rgb(56,56,56);fill-opacity:0.74902;"/>
        <path d="M1779.58,2522.37L2050.68,2445L2125.09,2489L1779.58,2522.37Z" style="fill:rgb(152,152,152);fill-opacity:0.74902;"/>
        <path d="M2149.85,2364.99L2241.58,2523.87L2125.09,2489L2149.85,2364.99Z" style="fill:rgb(244,244,244);fill-opacity:0.74902;"/>
        <path d="M2386.79,2524L2149.85,2364.99L2241.58,2523.87L2386.79,2524Z" style="fill:rgb(220,220,220);fill-opacity:0.74902;"/>
        <path d="M2067.42,2361.51L1779.58,2522.37L2050.68,2445L2067.42,2361.51Z" style="fill:rgb(120,120,120);fill-opacity:0.74902;"/>
        <path d="M1732.29,2445L1779.58,2522.37L2067.42,2361.51L1732.29,2445Z" style="fill:rgb(45,45,45);fill-opacity:0.74902;"/>
        <path d="M1406.84,2190L1732.29,2445L1450,2493L1406.84,2190Z" style="fill:rgb(120,120,120);fill-opacity:0.74902;"/>
        <path d="M1920,2240L1978.69,2267L2019,2240L1920,2240Z" style="fill:rgb(3,3,3);fill-opacity:0.937255;"/>
        <path d="M2193,2254.5L2244,2236L2298,2254.5L2193,2254.5Z" style="fill:none;"/>
        <path d="M2067.42,2361.51L1873,2276L1732.29,2445L2067.42,2361.51Z" style="fill:rgb(76,76,76);fill-opacity:0.74902;"/>
        <path d="M1406.84,2190L1873,2276L1732.29,2445L1406.84,2190Z" style="fill:rgb(174,174,174);fill-opacity:0.74902;"/>
        <path d="M2193,2254.5L2151,2359L2298,2254.5L2193,2254.5Z" style="fill:none;"/>
        <path d="M2452.34,2569L2298.61,2253L2149.25,2365L2452.34,2569Z" style="fill:rgb(235,235,235);fill-opacity:0.74902;"/>
        <path d="M2298,2254.5L2689.67,2161L2451.78,2567.5L2298,2254.5Z" style="fill:none;"/>
        <path d="M2297.07,2106L2679.67,2169L2298.61,2253L2297.07,2106Z" style="fill:rgb(193,193,193);fill-opacity:0.74902;"/>
        <path d="M2304,1717L2492.79,1767L2440,1609L2304,1717Z" style="fill:rgb(73,73,73);fill-opacity:0.74902;"/>
        <path d="M2579.97,1616L2492.79,1767L2435.41,1605.98L2579.97,1616Z" style="fill:rgb(2,2,2);fill-opacity:0.74902;"/>
        <path d="M2663,1691.5L2579.97,1616L2492.79,1767L2663,1691.5Z" style="fill:none;"/>
        <path d="M2599.69,1767L2663,1691.5L2492.79,1767L2599.69,1767Z" style="fill:rgb(183,183,183);fill-opacity:0.74902;"/>
        <path d="M2579.97,1616L2599.28,1719.76L2492.79,1767L2579.97,1616Z" style="fill:rgb(5,5,5);fill-opacity:0.74902;"/>
        <path d="M1498.76,1688.5L1647,1767L1607.83,1618.5L1498.76,1688.5Z" style="fill:rgb(50,50,50);fill-opacity:0.74902;"/>
        <path d="M1724.37,1633L1750,1700L1647,1767L1724.37,1633Z" style="fill:none;"/>
        <path d="M1607.83,1618.5L1720.68,1627.12L1647.29,1767.6L1607.83,1618.5Z" style="fill:rgb(5,5,5);fill-opacity:0.74902;"/>
        <path d="M1812.36,1675L1751.52,1700.74L1720.68,1627.12L1812.36,1675Z" style="fill:rgb(58,58,58);fill-opacity:0.74902;"/>
        <path d="M1647.29,1767.6L1769.92,1748.51L1812.36,1675L1751.52,1700.74L1647.29,1767.6Z" style="fill:rgb(76,76,76);fill-opacity:0.74902;"/>
        <path d="M2000,1666.5L1943.99,2036L2100,1909L2000,1666.5Z" style="fill:none;"/>
        <path d="M1870.43,2154L1943.99,2036L2109,2056L1870.43,2154Z" style="fill:none;"/>
        <path d="M2100.49,1909.5L2102.27,2055.01L1952,2037L2100.49,1909.5Z" style="fill:rgb(169,169,169);fill-opacity:0.74902;"/>
        <path d="M1870.43,2154L1874,2273L2071,2363L2109,2056L1870.43,2154Z" style="fill:none;"/>
        <path d="M2184,2262L2102.35,2055.2L2067.42,2361.51L2184,2262Z" style="fill:rgb(239,239,239);fill-opacity:0.74902;"/>
        <path d="M2296,2108L2241,2231L2298.61,2253L2296,2108Z" style="fill:white;fill-opacity:0.74902;"/>
        <path d="M2102.27,2055.01L2241,2231L2184,2262L2102.27,2055.01Z" style="fill:rgb(249,249,249);fill-opacity:0.74902;"/>
        <path d="M2100,1909L2296,2108L2109,2056L2100,1909Z" style="fill:none;"/>
        <path d="M1999,1663.93L2119.79,1501.75L2100.1,1908.83L1999,1663.93Z" style="fill:rgb(144,144,144);fill-opacity:0.74902;"/>
        <path d="M1869.19,2152L1406.84,2190L1873,2276L1869.19,2152Z" style="fill:rgb(94,94,94);fill-opacity:0.74902;"/>
        <path d="M1769.92,1748.51L1952,2037L1869.24,2152.07L1769.92,1748.51Z" style="fill:rgb(89,89,89);fill-opacity:0.74902;"/>
        <path d="M1406.84,2190L1769.92,1748.51L1869.24,2152.07L1406.84,2190Z" style="fill:rgb(85,85,85);fill-opacity:0.74902;"/>
        <path d="M1647.29,1767.6L1406.84,2190L1771,1748L1647.29,1767.6Z" style="fill:rgb(67,67,67);fill-opacity:0.74902;"/>
        <path d="M1812.36,1675L1999,1663.93L1952,2037L1812.36,1675Z" style="fill:rgb(69,69,69);fill-opacity:0.74902;"/>
        <path d="M1359.46,1919L1647.29,1767.6L1406.84,2190L1359.46,1919Z" style="fill:rgb(113,113,113);fill-opacity:0.74902;"/>
        <path d="M1498.76,1688.5L1312,1765L1359,1923L1498.76,1688.5Z" style="fill:rgb(69,69,69);fill-opacity:0.74902;"/>
        <path d="M1365.97,1578L1618,1551L1625.74,1461L1365.97,1578Z" style="fill:none;"/>
        <path d="M1834,1578L1891.66,1456L1626.06,1458.26L1618,1551L1834,1578Z" style="fill:rgb(5,5,5);fill-opacity:0.74902;"/>
        <path d="M1999,1663.93L2036.93,1544.23L1891.66,1456L1834,1578L1999,1663.93Z" style="fill:rgb(50,50,50);fill-opacity:0.74902;"/>
        <path d="M1812.36,1675L1834,1578L1999,1663.93L1812.36,1675Z" style="fill:rgb(31,31,31);fill-opacity:0.74902;"/>
        <path d="M1618,1551L1607,1625.61L1720.68,1627.12L1834,1578L1618,1551Z" style="fill:rgb(58,58,58);fill-opacity:0.74902;"/>
        <path d="M1498.76,1688.5L1361,1576L1618,1551L1607,1625.61L1498.76,1688.5Z" style="fill:rgb(56,56,56);fill-opacity:0.74902;"/>
        <path d="M1312,1765L1361,1576L1498.76,1688.5L1312,1765Z" style="fill:rgb(53,53,53);fill-opacity:0.74902;"/>
        <path d="M1230,1729L1228.28,1620L1242.01,1615.45L1361,1576L1312,1765L1230,1729Z" style="fill:rgb(13,13,13);fill-opacity:0.74902;"/>
        <path d="M2037,1544L2119.65,1502L1999,1663.93L2037,1544Z" style="fill:rgb(143,143,143);fill-opacity:0.74902;"/>
        <path d="M2100,1909L2302,1716L2380,1928L2288,2103L2100,1909Z" style="fill:rgb(228,228,228);fill-opacity:0.74902;"/>
        <path d="M2483.14,1765L2380,1928L2563,1945L2598,1765L2483.14,1765Z" style="fill:rgb(189,189,189);fill-opacity:0.74902;"/>
        <path d="M2675.77,2170L2563,1945L2380,1928L2288,2103L2675.77,2170Z" style="fill:rgb(252,252,252);fill-opacity:0.74902;"/>
        <path d="M2785,1855L2598,1765L2563,1945L2785,1855Z" style="fill:rgb(252,252,252);fill-opacity:0.74902;"/>
        <path d="M2831.83,2170L2785,1855L2540.27,1954.45L2831.83,2170Z" style="fill:white;fill-opacity:0.74902;"/>
        <path d="M2940,2012.5L2971,1716L2785,1855L2940,2012.5Z" style="fill:rgb(252,252,252);fill-opacity:0.74902;"/>
        <path d="M2951,1504L2971,1716L2669,1692L2951,1504Z" style="fill:rgb(210,210,210);fill-opacity:0.74902;"/>
        <path d="M2305,1716L2118.97,1502.34L2443,1610L2305,1716Z" style="fill:rgb(229,229,229);fill-opacity:0.74902;"/>
        <path d="M2317.34,1488L2309.91,1567.38L2118.78,1502.68L2317.34,1488Z" style="fill:rgb(96,96,96);fill-opacity:0.74902;"/>
        <path d="M2435,1544L2532.33,1455.28L2317.34,1488L2309.91,1567.38L2435,1544Z" style="fill:rgb(57,57,57);fill-opacity:0.74902;"/>
        <path d="M2728.47,1589L2532.33,1455.28L2438.26,1541.03L2728.47,1589Z" style="fill:rgb(3,3,3);fill-opacity:0.74902;"/>
        <path d="M2679.39,1504L2728.47,1589L2532.33,1455.28L2679.39,1504Z" style="fill-opacity:0.74902;"/>
        <path d="M2443,1610L2438.26,1541.03L2309.91,1567.38L2443,1610Z" style="fill:rgb(110,110,110);fill-opacity:0.74902;"/>
        <path d="M2574.58,1614.72L2728.47,1589L2669,1692L2574.58,1614.72Z" style="fill:rgb(160,160,160);fill-opacity:0.74902;"/>
        <path d="M2972,1491L2728.47,1589L2662.84,1702.67L2972,1491Z" style="fill:rgb(231,231,231);fill-opacity:0.74902;"/>
        <path d="M2119.03,1502.77L2216,1095L2532.33,1455.28L2317,1486L2119.03,1502.77Z" style="fill:rgb(250,250,250);fill-opacity:0.74902;"/>
        <path d="M2610,1010L2679.39,1504L2520.95,1456.9L2610,1010Z" style="fill:white;fill-opacity:0.74902;"/>
        <path d="M2216,1095L2610,1010L2520.95,1456.9L2216,1095Z" style="fill:white;fill-opacity:0.74902;"/>
        <path d="M2672.49,1501.95L2885.3,1199L2951.16,1504L2672.49,1501.95Z" style="fill:rgb(253,253,253);fill-opacity:0.74902;"/>
        <path d="M2610,1010L2885.3,1199L2678,1494.1L2610,1010Z" style="fill:white;fill-opacity:0.74902;"/>
        <path d="M2704,738L2856.61,882.218L2610,1010L2704,738Z" style="fill:rgb(251,251,251);fill-opacity:0.74902;"/>
        <path d="M2879.26,1193L2856.61,882.218L2610,1010L2879.26,1193Z" style="fill:white;fill-opacity:0.74902;"/>
        <path d="M2176.58,637L2610,1010L2704,738L2176.58,637Z" style="fill:white;fill-opacity:0.74902;"/>
        <path d="M2217,1094L2610,1010L2186.62,643L2217,1094Z" style="fill:none;"/>
        <path d="M1731,694L2186.62,643L2217,1094L1731,694Z" style="fill:none;"/>
        <path d="M1815.81,1168L2119.77,1502.21L2217,1094L1815.81,1168Z" style="fill:rgb(226,226,226);fill-opacity:0.74902;"/>
        <path d="M1731,694L1815.81,1168L2217,1094L1731,694Z" style="fill:rgb(201,201,201);fill-opacity:0.74902;"/>
        <path d="M1626.06,1458.26L1891.66,1456L1815.81,1168L1626.06,1458.26Z" style="fill:rgb(182,182,182);fill-opacity:0.74902;"/>
        <path d="M2119.8,1502.17L1891.66,1456L1982.84,1511.56L2037,1544L2119.8,1502.17Z" style="fill:rgb(195,195,195);fill-opacity:0.74902;"/>
        <path d="M1731,694L1336.63,851L1815.81,1168L1731,694Z" style="fill:rgb(137,137,137);fill-opacity:0.74902;"/>
        <path d="M1626.06,1458.26L1336.63,851L1815.81,1168L1626.06,1458.26Z" style="fill:rgb(118,118,118);fill-opacity:0.74902;"/>
        <path d="M1228.28,1620L1336.63,851L1416.18,1323.07L1228.28,1620Z" style="fill:rgb(81,81,81);fill-opacity:0.74902;"/>
        <path d="M1626.06,1458.26L1416.18,1323.07L1228.28,1620L1366,1576L1626.06,1458.26Z" style="fill:rgb(103,103,103);fill-opacity:0.74902;"/>
        <path d="M1248.03,800L1336.63,851L1125,1153L1248.03,800Z" style="fill:rgb(2,2,2);fill-opacity:0.74902;"/>
        <path d="M1229.84,1622.69L1141.12,1545L1268.42,1335.1L1229.84,1622.69Z" style="fill:rgb(1,1,1);fill-opacity:0.74902;"/>
        <path d="M1125.61,1152.13L1268.42,1335.1L1141.12,1545L1125.61,1152.13Z" style="fill:rgb(1,1,1);fill-opacity:0.74902;"/>
        <path d="M1393,461L1248.03,800L1336.63,851L1393,461Z" style="fill:rgb(6,6,6);fill-opacity:0.74902;"/>
        <path d="M1730,694L1393,461L1336.63,851L1730,694Z" style="fill-opacity:0.74902;"/>
        <path d="M1912,461L1730,694L1393,461L1912,461Z" style="fill-opacity:0.74902;"/>
        <path d="M1565,265L1393,461L1912,461L1565,265Z" style="fill-opacity:0.74902;"/>
        <path d="M2183,639L1912,461L1730,694L2183,639Z" style="fill:rgb(1,1,1);fill-opacity:0.74902;"/>
        <path d="M2294.07,346L1912,461L2183,639L2294.07,346Z" style="fill-opacity:0.74902;"/>
        <path d="M2628,439L2703,738L2183,639L2628,439Z" style="fill:rgb(1,1,1);fill-opacity:0.74902;"/>
        <path d="M2294.07,346L2628,439L2183,639L2294.07,346Z" style="fill-opacity:0.74902;"/>
        <path d="M2000,173L1912,461L1567,266L2000,173Z" style="fill:rgb(1,1,1);fill-opacity:0.74902;"/>
        <path d="M2318,131L2294.35,346.488L1912,461L2318,131Z" style="fill-opacity:0.74902;"/>
        <path d="M2000,173L2318,131L1912,461L2000,173Z" style="fill:rgb(2,2,2);fill-opacity:0.74902;"/>
        <path d="M2657,264L2628,439L2294.07,346L2657,264Z" style="fill:rgb(11,11,11);fill-opacity:0.74902;"/>
        <path d="M2318,131L2657,264L2294.07,346L2318,131Z" style="fill:rgb(9,9,9);fill-opacity:0.74902;"/>
        <path d="M2968.76,654L2628,439L2657,264L2968.76,654Z" style="fill:rgb(13,13,13);fill-opacity:0.74902;"/>
        <path d="M2856.61,882.218L2968.76,654L2703,738L2856.61,882.218Z" style="fill-opacity:0.74902;"/>
        <path d="M3043.3,1055L2968.76,654L2856.61,882.218L3043.3,1055Z" style="fill:rgb(20,20,20);fill-opacity:0.74902;"/>
        <path d="M3080.02,1352L2879.26,1193L3043.3,1055L3080.02,1352Z" style="fill:rgb(37,37,37);fill-opacity:0.74902;"/>
        <path d="M2533,2610L2588.51,2619.25L2670.07,2340.7L2533,2610Z" style="fill:rgb(171,171,171);fill-opacity:0.74902;"/>
        <path d="M2464.21,2665.48L2588.51,2619.25L2521,2861L2464.21,2665.48Z" style="fill:rgb(208,208,208);fill-opacity:0.74902;"/>
        <path d="M2730,2723L2521,2861L2521.11,2939.54L2730,2723Z" style="fill:rgb(208,208,208);fill-opacity:0.74902;"/>
        <path d="M2943.65,1507.85L3080.02,1352L2879.26,1193L2943.65,1507.85Z" style="fill:rgb(58,58,58);fill-opacity:0.74902;"/>
        <path d="M2965,1718L3080.93,1350.43L2943.16,1503L2965,1718Z" style="fill:rgb(59,59,59);fill-opacity:0.74902;"/>
        <path d="M3122.11,1624L3021.57,1527.38L2965,1718L3122.11,1624Z" style="fill:rgb(214,214,214);fill-opacity:0.74902;"/>
        <path d="M3075,1839L2965,1718L3120.74,1622.69L3075,1839Z" style="fill:rgb(183,183,183);fill-opacity:0.74902;"/>
        <path d="M2936,2016L3075,1839L2965,1718L2936,2016Z" style="fill:rgb(175,175,175);fill-opacity:0.74902;"/>
        <path d="M1230,1729L1155,1622.69L1066,1656L1230,1729Z" style="fill:rgb(58,58,58);fill-opacity:0.74902;"/>
        <path d="M1067.33,1825L1227.84,1935.07L1230,1729L1066,1656L1067.33,1825Z" style="fill:rgb(14,14,14);fill-opacity:0.74902;"/>
        <path d="M1168.77,2036L1227.04,1935.07L1067.33,1825L1168.77,2036Z" style="fill:rgb(49,49,49);fill-opacity:0.74902;"/>
        <path d="M1244.57,2132L1168.77,2036L1227.84,1935.07L1244.57,2132Z" style="fill:rgb(61,61,61);fill-opacity:0.74902;"/>
        <path d="M1276.55,2240L1173,2190L1243.6,2131.38L1276.55,2240Z" style="fill:rgb(97,97,97);fill-opacity:0.74902;"/>
        <path d="M1170.21,2033.5L1243.6,2131.38L1173,2190L1170.21,2033.5Z" style="fill:rgb(112,112,112);fill-opacity:0.74902;"/>
        <path d="M1920,2240L1868.37,2152.07L2019,2240L1920,2240Z" style="fill:rgb(66,66,66);fill-opacity:0.74902;"/>
        <path d="M2102.27,2055.01L2019,2240L1869.2,2152.14L2102.27,2055.01Z" style="fill:rgb(138,138,138);fill-opacity:0.74902;"/>
        <path d="M2067.42,2361.51L2101.6,2056.51L2019,2240L2067.42,2361.51Z" style="fill:rgb(163,163,163);fill-opacity:0.74902;"/>
        <path d="M1873,2276L1920,2240L1978.69,2267L2067.03,2361.45L1873,2276Z" style="fill:rgb(68,68,68);fill-opacity:0.74902;"/>
        <path d="M1440,2760L1521,3398L1618.72,2937L1440,2760Z" style="fill:rgb(12,12,12);fill-opacity:0.74902;"/>
        <path d="M1875,3104L1618.72,2937L1521,3398L1875,3104Z" style="fill:rgb(2,2,2);fill-opacity:0.74902;"/>
        <path d="M1521,3398L1692,3631L1875,3104L1521,3398Z" style="fill:rgb(16,16,16);fill-opacity:0.74902;"/>
        <path d="M2118,3452L1875,3104L1692,3631L2118,3452Z" style="fill:rgb(89,89,89);fill-opacity:0.74902;"/>
        <path d="M2061.41,3139L2118,3452L1875,3104L2061.41,3139Z" style="fill:rgb(108,108,108);fill-opacity:0.74902;"/>
        <path d="M2227.09,3104.1L2118,3452L2061.41,3139L2227.09,3104.1Z" style="fill:rgb(228,228,228);fill-opacity:0.74902;"/>
        <path d="M2416.4,3685L1692,3631L2119,3449L2416.4,3685Z" style="fill:rgb(137,137,137);fill-opacity:0.74902;"/>
        <path d="M2555.45,3431.78L2119,3449L2416.4,3685L2555.45,3431.78Z" style="fill:rgb(35,35,35);fill-opacity:0.74902;"/>
        <path d="M2536,3143L2227.09,3104.1L2555.45,3431.78L2536,3143Z" style="fill:rgb(203,203,203);fill-opacity:0.74902;"/>
        <path d="M2663.49,2991.46L2555.45,3431.78L2536,3143L2663.49,2991.46Z" style="fill:rgb(17,17,17);fill-opacity:0.74902;"/>
        <path d="M2521,2938L2663.49,2991.46L2536,3143L2521,2938Z" style="fill:rgb(215,215,215);fill-opacity:0.74902;"/>
        <path d="M2603.79,2864L2680,2996L2521,2938L2603.79,2864Z" style="fill:none;"/>
        <path d="M2728.28,2716L2680,2996L2603.79,2864L2728.28,2716Z" style="fill:none;"/>
        <path d="M2077,3966L1692,3631L2416.4,3685L2077,3966Z" style="fill:rgb(120,120,120);fill-opacity:0.74902;"/>
        <path d="M2730,2723L3041.38,3431.78L2555.45,3431.78L2730,2723Z" style="fill:rgb(1,1,1);fill-opacity:0.74902;"/>
        <path d="M2830.52,3914.66L3041.38,3431.78L2555.45,3431.78L2830.52,3914.66Z" style="fill-opacity:0.74902;"/>
        <path d="M2416.4,3685L2555.45,3431.78L2830.52,3914.66L2416.4,3685Z" style="fill-opacity:0.74902;"/>
        <path d="M3210,3611L3043.24,3435L2831.3,3916L3210,3611Z" style="fill:none;"/>
        <path d="M3033,3032L3208,3610L3041.38,3431.78L3033,3032Z" style="fill-opacity:0.74902;"/>
        <path d="M2730,2723L3033,3032L3041.38,3431.78L2730,2723Z" style="fill:rgb(1,1,1);fill-opacity:0.74902;"/>
        <path d="M2977,2842L3033,3032L2730,2723L2977,2842Z" style="fill:rgb(68,68,68);fill-opacity:0.74902;"/>
        <path d="M3315.54,2874L2977,2842L3033,3032L3315.54,2874Z" style="fill:rgb(25,25,25);fill-opacity:0.74902;"/>
        <path d="M3210,3611L3315.54,2874L3033,3032L3210,3611Z" style="fill:none;"/>
        <path d="M3686.27,3015L3208,3610L3315.54,2874L3686.27,3015Z" style="fill-opacity:0.74902;"/>
        <path d="M3960,3104L3744.03,3567L3686.27,3015L3960,3104Z" style="fill-opacity:0.74902;"/>
        <path d="M3210,3611L3682,3009L3744.03,3567L3210,3611Z" style="fill:none;"/>
        <path d="M3304.39,3888L3208,3610L3744.03,3567L3304.39,3888Z" style="fill-opacity:0.74902;"/>
        <path d="M2830.52,3914.66L3304.39,3888L3208,3610L2830.52,3914.66Z" style="fill:rgb(1,1,1);fill-opacity:0.74902;"/>
        <path d="M1440,2760L1057,3567L1521,3398L1440,2760Z" style="fill:rgb(8,8,8);fill-opacity:0.74902;"/>
        <path d="M1379.06,3908.45L1521,3398L1057,3567L1379.06,3908.45Z" style="fill-opacity:0.74902;"/>
        <path d="M1692,3631L1379.06,3908.45L1521,3398L1692,3631Z" style="fill:rgb(14,14,14);fill-opacity:0.74902;"/>
        <path d="M2077,3966L1379.06,3908.45L1692,3631L2077,3966Z" style="fill-opacity:0.74902;"/>
        <path d="M1440,2760L808,3031L1057,3567L1440,2760Z" style="fill-opacity:0.74902;"/>
        <path d="M230,3256L1057,3567L808,3031L230,3256Z" style="fill-opacity:0.74902;"/>
        <path d="M544.079,3800L1057,3567L229.934,3255.89L544.079,3800Z" style="fill-opacity:0.74902;"/>
        <path d="M1379.06,3908.45L1057,3567L544.079,3800L1379.06,3908.45Z" style="fill-opacity:0.74902;"/>
        <path d="M83,3938L544.079,3800L229.934,3255.89L83,3938Z" style="fill:rgb(2,2,2);fill-opacity:0.74902;"/>
        <path d="M2830.52,3914.66L2416.4,3685L2077,3966L2830.52,3914.66Z" style="fill:rgb(4,4,4);fill-opacity:0.74902;"/>
        <path d="M3769,3870L3745.59,3563.66L3301,3891L3769,3870Z" style="fill-opacity:0.74902;"/>
        <path d="M1125,1153L1336.63,851L1268.42,1335.1L1125,1153Z" style="fill-opacity:0.772549;"/>
        <path d="M1720.68,1627.12L1812.36,1675L1834,1578L1720.68,1627.12Z" style="fill:rgb(19,19,19);fill-opacity:0.772549;"/>
        <path d="M1344.71,865L1267.58,1340.45L1112,1152L1344.71,865Z" style="fill:none;"/>
        <path d="M2730,2723L2522,2938L2663.49,2991.46L2730,2723Z" style="fill:rgb(230,230,230);fill-opacity:0.74902;"/>
        <path d="M2380,1928L2300,1713L2492.2,1765L2380,1928Z" style="fill:rgb(99,99,99);fill-opacity:0.74902;"/>
        <path d="M2119.43,1501.75L2099.45,1909.5L2305.49,1717.4L2119.43,1501.75Z" style="fill:rgb(254,254,254);fill-opacity:0.74902;"/>
        <path d="M1952,2037L2100.33,1908.68L1999,1663.93L1952,2037Z" style="fill:rgb(101,101,101);fill-opacity:0.74902;"/>
        <path d="M1769.92,1748.51L1812.36,1675L1952,2037L1785.76,1774.39L1769.92,1748.51Z" style="fill:rgb(29,29,29);fill-opacity:0.74902;"/>
        <path d="M1647.29,1767.6L1751.52,1700.74L1720.68,1627.12L1647.29,1767.6Z" style="fill:rgb(4,4,4);fill-opacity:0.937255;"/>
        <path d="M1359.46,1919L1498.76,1688.5L1647.29,1767.6L1359.46,1919Z" style="fill:rgb(52,52,52);fill-opacity:0.74902;"/>
        <path d="M1230,1729L1312,1765L1359.46,1919L1227.97,1936.69L1230,1729Z" style="fill:rgb(98,98,98);fill-opacity:0.74902;"/>
        <path d="M1276.55,2240L1406.84,2190L1243.6,2131.38L1276.55,2240Z" style="fill:rgb(101,101,101);fill-opacity:0.74902;"/>
        <path d="M1450,2493L1732.72,2444.25L1779.58,2522.37L1450,2493Z" style="fill:rgb(68,68,68);fill-opacity:0.74902;"/>
        <path d="M1869.24,2152.07L1922.97,2245L1873,2276L1869.24,2152.07Z" style="fill:rgb(101,101,101);fill-opacity:0.74902;"/>
        <path d="M1952.9,2637L1936.37,2542.39L1779.58,2522.37L1952.9,2637Z" style="fill:rgb(34,34,34);fill-opacity:0.74902;"/>
        <path d="M1752.06,2778L2025.51,2685.66L1952.9,2637L1752.06,2778Z" style="fill:rgb(150,150,150);fill-opacity:0.74902;"/>
        <path d="M2087.08,2761.12L2081.77,2816L1752.06,2778L2087.08,2761.12Z" style="fill:rgb(170,170,170);fill-opacity:0.74902;"/>
        <path d="M1875,3104L1882,3000L1618.72,2937L1875,3104Z" style="fill:rgb(11,11,11);fill-opacity:0.74902;"/>
        <path d="M2067.96,3020.5L2221.67,2994L2227.09,3104.1L2067.96,3020.5Z" style="fill:rgb(66,66,66);fill-opacity:0.74902;"/>
        <path d="M2061.41,3139L2227.09,3104.1L2067.96,3020.5L2061.41,3139Z" style="fill:rgb(59,59,59);fill-opacity:0.74902;"/>
        <path d="M2227.09,3104.1L2119,3449L2555.45,3431.78L2227.09,3104.1Z" style="fill:rgb(23,23,23);fill-opacity:0.74902;"/>
        <path d="M2520.22,2938L2536,3143L2227.09,3104.1L2520.22,2938Z" style="fill:rgb(81,81,81);fill-opacity:0.74902;"/>
        <path d="M2740.3,2723L2670.07,2340.7L2517.68,2861.17L2740.3,2723Z" style="fill:white;fill-opacity:0.74902;"/>
        <path d="M2936,2016L2730.55,2711.03L2670.07,2340.7L2936,2016Z" style="fill:white;fill-opacity:0.74902;"/>
        <path d="M2298.61,2253L2675.77,2170L2670.07,2340.7L2298.61,2253Z" style="fill:rgb(224,224,224);fill-opacity:0.74902;"/>
        <path d="M2452.34,2569L2670.07,2340.7L2298.61,2253L2452.34,2569Z" style="fill:rgb(171,171,171);fill-opacity:0.74902;"/>
        <path d="M2675.77,2170L2936,2016L2670.07,2340.7L2675.77,2170Z" style="fill:white;fill-opacity:0.74902;"/>
        <path d="M2087.21,2761.12L2130,2665L2327.89,2814L2087.21,2761.12Z" style="fill:rgb(159,159,159);fill-opacity:0.74902;"/>
        <path d="M2441,1606L2589,1622.69L2434,1537L2441,1606Z" style="fill:rgb(61,61,61);fill-opacity:0.74902;"/>
        <path d="M2730.6,1590L2574.58,1614.72L2434,1537L2730.6,1590Z" style="fill:rgb(104,104,104);fill-opacity:0.74902;"/>
        <path d="M2669.58,1691L2979,1718L2784,1858L2669.58,1691Z" style="fill:rgb(237,237,237);fill-opacity:0.74902;"/>
        <path d="M2594,1728L2575.93,1609L2669.58,1691L2594,1728Z" style="fill:rgb(94,94,94);fill-opacity:0.74902;"/>
        <path d="M2594.71,1767L2784,1858L2668.2,1688.62L2594.71,1767Z" style="fill:rgb(153,153,153);fill-opacity:0.74902;"/>
        <path d="M2947,2012.5L2784,1858L2815.29,2087.43L2947,2012.5Z" style="fill:rgb(187,187,187);fill-opacity:0.74902;"/>
        <path d="M2548.04,1941L2767.96,2115.44L2675.77,2170L2548.04,1941Z" style="fill:rgb(230,230,230);fill-opacity:0.74902;"/>
        <path d="M2184,2262L2298.61,2253L2241,2231L2184,2262Z" style="fill:rgb(54,54,54);fill-opacity:0.937255;"/>
        <path d="M2067.42,2361.51L2150,2363.51L2184,2262L2067.42,2361.51Z" style="fill:rgb(213,213,213);fill-opacity:0.74902;"/>
        <path d="M2298.61,2253L2150,2363.51L2184,2262L2298.61,2253Z" style="fill:rgb(247,247,247);fill-opacity:0.74902;"/>
        <path d="M2327.89,2814L2464.07,2665L2521,2862L2327.89,2814Z" style="fill:white;fill-opacity:0.74902;"/>
        <path d="M2462.97,2666.16L2533,2610L2588.51,2619.25L2462.97,2666.16Z" style="fill:white;fill-opacity:0.74902;"/>
        <path d="M2272,2610L2328,2814L2463.97,2665.06L2272,2610Z" style="fill:white;fill-opacity:0.74902;"/>
        <path d="M2130,2665L2123.02,2566L2242.66,2524L2272,2610L2130,2665Z" style="fill:rgb(152,152,152);fill-opacity:0.74902;"/>
        <path d="M1869.2,2152.14L2102.27,2055.01L1952,2037L1869.2,2152.14Z" style="fill:rgb(124,124,124);fill-opacity:0.74902;"/>
        <path d="M2019,2240L2067.42,2361.51L1978.69,2267L2019,2240Z" style="fill:rgb(60,60,60);fill-opacity:0.74902;"/>
        <path d="M2100,1909L2102.42,2055.2L2240,2232L2296.37,2110L2100,1909Z" style="fill:rgb(236,236,236);fill-opacity:0.74902;"/>
        <path d="M1626.06,1458.26L1618,1551L1361,1576L1626.06,1458.26Z" style="fill:rgb(4,4,4);fill-opacity:0.74902;"/>
        <path d="M1416.18,1323.07L1626.06,1458.26L1336.63,851L1416.18,1323.07Z" style="fill:rgb(115,115,115);fill-opacity:0.74902;"/>
        <path d="M1815.81,1168L2119.4,1502.43L1891.66,1456L1815.81,1168Z" style="fill:rgb(217,217,217);fill-opacity:0.74902;"/>
        <path d="M2183,639L2222,1100L1731,694L2183,639Z" style="fill:rgb(121,121,121);fill-opacity:0.74902;"/>
        <path d="M2613,1012L2183,639L2221.5,1094L2613,1012Z" style="fill:rgb(195,195,195);fill-opacity:0.74902;"/>
        <path d="M2628,439L2968.76,654L2703,738L2628,439Z" style="fill-opacity:0.74902;"/>
        <path d="M2856.61,882.218L3043.3,1055L2880.29,1192.13L2856.61,882.218Z" style="fill-opacity:0.74902;"/>
        <path d="M2676.56,1503L2730.6,1590L2887.56,1526.89L2942,1505L2676.56,1503Z" style="fill:rgb(189,189,189);fill-opacity:0.74902;"/>
        <path d="M3033,3032L3315.54,2874L3208,3610L3033,3032Z" style="fill:rgb(1,1,1);fill-opacity:0.74902;"/>
        <path d="M2832.14,3911.86L3041.38,3431.78L3208,3610L2832.14,3911.86Z" style="fill-opacity:0.74902;"/>
        <path d="M3686.27,3015L3745,3567L3208,3610L3686.27,3015Z" style="fill:rgb(2,2,2);fill-opacity:0.74902;"/>
        <g transform="matrix(1,0,0,1,17,-250)">
            <path d="M2204.67,3244L2210.09,3354.1L2504.04,3188.53L2506.4,3107.62L2204.67,3244Z" style="fill:rgb(215,215,215);fill-opacity:0.74902;"/>
        </g>
        <g transform="matrix(1,0,0,1,17,-250)">
            <path d="M1865,3250L2050.96,3270.5L2044.41,3389L1858,3354L1865,3250Z" style="fill:rgb(168,168,168);"/>
        </g>
        <g transform="matrix(1,0,0,1,17,-250)">
            <path d="M3943,3354L4212,3691L3727.82,3815.31L3943,3354Z" style="fill:rgb(1,1,1);fill-opacity:0.74902;"/>
        </g>
        <g transform="matrix(1,0,0,1,17,-250)">
            <path d="M3752,4120L4212,3691L3729.18,3814.96L3752,4120Z" style="fill:rgb(1,1,1);fill-opacity:0.74902;"/>
        </g>
        <g transform="matrix(1,0,0,1,17,-250)">
            <path d="M4290,4120L4212,3691L3752,4120L4290,4120Z" style="fill:rgb(1,1,1);fill-opacity:0.74902;"/>
        </g>
    </g>
</svg>
