<?xml version="1.0" encoding="UTF-8" standalone="no"?><!DOCTYPE svg PUBLIC "-//W3C//DTD SVG 1.1//EN" "http://www.w3.org/Graphics/SVG/1.1/DTD/svg11.dtd"><svg width="100%" height="100%" viewBox="0 0 511 776" version="1.1" xmlns="http://www.w3.org/2000/svg" xmlns:xlink="http://www.w3.org/1999/xlink" xml:space="preserve" xmlns:serif="http://www.serif.com/" style="fill-rule:evenodd;clip-rule:evenodd;stroke-linecap:square;stroke-miterlimit:1;"><rect id="Artboard1" x="0" y="0" width="510.081" height="776" style="fill:none;"/><clipPath id="_clip1"><rect x="0" y="0" width="510.081" height="776"/></clipPath><g clip-path="url(#_clip1)"><g><g id="Layer1"><path d="M318.922,520.006l32.905,21.336l-24.216,-28.933l-8.689,7.597Z" style="fill:none;stroke:#ffd0ac;stroke-width:0.92px;"/><path d="M318.922,520.006l32.905,21.336l-24.216,-28.933l-8.689,7.597Z" style="fill:#ffd0ac;"/><path d="M347.384,562.791l4.443,-21.449l-32.905,-21.336l28.462,42.785Z" style="fill:none;stroke:#feb78f;stroke-width:0.92px;"/><path d="M347.384,562.791l4.443,-21.449l-32.905,-21.336l28.462,42.785Z" style="fill:#feb78f;"/><path d="M347.001,380.476l-6.627,15.736l-4.284,14.464l22.364,-9.109l-11.453,-21.091Z" style="fill:none;stroke:#e3977f;stroke-width:0.92px;"/><path d="M347.001,380.476l-6.627,15.736l-4.284,14.464l22.364,-9.109l-11.453,-21.091Z" style="fill:#e3977f;"/><path d="M399.791,409.653l22.567,-29.032l-16.213,-4.953l-6.354,33.985Z" style="fill:none;stroke:#964a26;stroke-width:0.92px;"/><path d="M399.791,409.653l22.567,-29.032l-16.213,-4.953l-6.354,33.985Z" style="fill:#ad6243;"/><path d="M351.486,371.971l22.755,11.919l31.904,-8.222l-40.92,-14.192l-13.739,10.495Z" style="fill:none;stroke:#843827;stroke-width:0.92px;"/><path d="M351.486,371.971l22.755,11.919l31.904,-8.222l-40.92,-14.192l-13.739,10.495Z" style="fill:#843827;"/><path d="M365.334,361.216l-1.551,-9.147l-49.961,-11.197l51.512,20.344Z" style="fill:none;stroke:#964a26;stroke-width:0.92px;"/><path d="M365.334,361.216l-1.551,-9.147l-49.961,-11.197l51.512,20.344Z" style="fill:#9a5237;"/><path d="M314.099,340.722l49.684,11.347l15.634,-56.212l-92.046,-15.141l26.728,60.006Z" style="fill:none;stroke:#964a26;stroke-width:0.92px;"/><path d="M314.099,340.722l49.684,11.347l15.634,-56.212l-92.046,-15.141l26.728,60.006Z" style="fill:#ffcfa7;"/><path d="M287.371,280.716l92.046,15.141l-61.18,-58.484l-30.866,43.343Z" style="fill:none;stroke:#ffe3bf;stroke-width:0.92px;"/><path d="M287.371,280.716l92.046,15.141l-61.18,-58.484l-30.866,43.343Z" style="fill:#ffe3bf;"/><path d="M362.026,213.593l-43.789,23.78l61.18,58.484l-17.391,-82.264Z" style="fill:none;stroke:#ffbc93;stroke-width:0.92px;"/><path d="M362.026,213.593l-43.789,23.78l61.18,58.484l-17.391,-82.264Z" style="fill:#ffbc93;"/><path d="M379.417,295.857l35.334,14.828l20.771,-79.529l-73.496,-17.563l17.391,82.264Z" style="fill:none;stroke:#ee9e76;stroke-width:0.92px;"/><path d="M379.417,295.857l35.334,14.828l20.771,-79.529l-73.496,-17.563l17.391,82.264Z" style="fill:#ee9e76;"/><path d="M435.522,231.156l51.613,-44.931l-65.387,-2.911l-59.722,30.279l73.496,17.563Z" style="fill:none;stroke:#964a26;stroke-width:0.92px;"/><path d="M435.522,231.156l51.613,-44.931l-65.387,-2.911l-59.722,30.279l73.496,17.563Z" style="fill:#2e0c0b;"/><path d="M487.135,186.225l78.245,14.487l37.69,-60.542l-102.254,-12.936l-13.681,58.991Z" style="fill:none;stroke:#100107;stroke-width:0.92px;"/><path d="M487.135,186.225l78.245,14.487l37.69,-60.542l-102.254,-12.936l-13.681,58.991Z" style="fill:#0d0000;"/><path d="M421.748,183.314l65.387,2.911l-63.722,-58.592l-1.665,55.681Z" style="fill:none;stroke:#100107;stroke-width:0.92px;"/><path d="M421.748,183.314l65.387,2.911l-63.722,-58.592l-1.665,55.681Z" style="fill:#0d0000;"/><path d="M362.026,213.593l59.722,-30.279l-79.961,-40.76l20.239,71.039Z" style="fill:none;stroke:#100107;stroke-width:0.92px;"/><path d="M362.026,213.593l59.722,-30.279l-79.961,-40.76l20.239,71.039Z" style="fill:#0d0000;"/><path d="M423.413,127.633l-1.665,55.681l-79.961,-40.76l81.626,-14.921Z" style="fill:none;stroke:#100107;stroke-width:0.92px;"/><path d="M423.413,127.633l-1.665,55.681l-79.961,-40.76l81.626,-14.921Z" style="fill:#0d0000;"/><path d="M500.816,127.234l-77.403,0.399l63.722,58.592l13.681,-58.991Z" style="fill:none;stroke:#100107;stroke-width:0.92px;"/><path d="M500.816,127.234l-77.403,0.399l63.722,58.592l13.681,-58.991Z" style="fill:#100107;"/><path d="M347.001,380.476l11.453,21.091l5.556,-12.121l-17.009,-8.97Z" style="fill:none;stroke:#964a26;stroke-width:0.92px;"/><path d="M347.001,380.476l11.453,21.091l5.556,-12.121l-17.009,-8.97Z" style="fill:#8c4435;"/><path d="M380.633,420.057l-16.623,-30.611l-5.556,12.121l22.179,18.49Z" style="fill:none;stroke:#964935;stroke-width:0.92px;"/><path d="M380.633,420.057l-16.623,-30.611l-5.556,12.121l22.179,18.49Z" style="fill:#964935;"/><path d="M338.496,375.991l1.878,20.221l6.627,-15.736l-8.505,-4.485Z" style="fill:none;stroke:#4c0901;stroke-width:0.92px;"/><path d="M338.496,375.991l1.878,20.221l6.627,-15.736l-8.505,-4.485Z" style="fill:#4c0800;"/><path d="M332.335,370.233l8.039,25.979l-1.878,-20.221l-6.161,-5.758Z" style="fill:none;stroke:#400200;stroke-width:0.92px;"/><path d="M332.335,370.233l8.039,25.979l-1.878,-20.221l-6.161,-5.758Z" style="fill:#400200;"/><path d="M338.496,375.991l12.99,-4.02l-19.151,-1.738l6.161,5.758Z" style="fill:none;stroke:#420200;stroke-width:0.92px;"/><path d="M338.496,375.991l12.99,-4.02l-19.151,-1.738l6.161,5.758Z" style="fill:#420200;"/><path d="M364.01,389.446l-12.524,-17.475l-12.99,4.02l25.514,13.455Z" style="fill:none;stroke:#4c0901;stroke-width:0.92px;"/><path d="M364.01,389.446l-12.524,-17.475l-12.99,4.02l25.514,13.455Z" style="fill:#4d0b01;"/><path d="M290.276,387.778l-2.816,22.755l12.672,-4.606l-9.856,-18.149Z" style="fill:none;stroke:#fecfb4;stroke-width:0.92px;"/><path d="M290.276,387.778l-2.816,22.755l12.672,-4.606l-9.856,-18.149Z" style="fill:#ffd0b5;fill-opacity:0.996078;"/><path d="M251.463,483.943l16.606,-2.948l25.656,-72.566l0.001,0l0.07,-0.199l-6.336,2.303l-35.997,73.41Z" style="fill:none;stroke:#fef2d4;stroke-width:0.92px;"/><path d="M251.463,483.943l16.606,-2.948l25.656,-72.566l0.001,0l0.07,-0.199l-6.336,2.303l-35.997,73.41Z" style="fill:#fff3d5;fill-opacity:0.996078;"/><path d="M243.766,503.296l24.303,-22.301l-16.606,2.948l-7.697,19.353Z" style="fill:none;stroke:#fdcdb1;stroke-width:0.92px;"/><path d="M243.766,503.296l24.303,-22.301l-16.606,2.948l-7.697,19.353Z" style="fill:#feceb2;fill-opacity:0.996078;"/><path d="M264.592,519.296l-15.736,-6.627l-5.09,-9.373l20.826,16Z" style="fill:none;stroke:#964a26;stroke-width:0.92px;"/><path d="M264.592,519.296l-15.736,-6.627l-5.09,-9.373l20.826,16Z" style="fill:#803822;fill-opacity:0.996078;"/><path d="M266.734,512.064l16.143,-3.801l13.453,-3.167l-19.151,-1.738l-10.445,8.706Z" style="fill:none;stroke:#5c0d02;stroke-width:0.92px;"/><path d="M266.734,512.064l16.143,-3.801l13.453,-3.167l-19.151,-1.738l-10.445,8.706Z" style="fill:#5c0d02;"/><path d="M282.877,508.263l19.816,8.55l-6.363,-11.717l-13.453,3.167Z" style="fill:none;stroke:#510100;stroke-width:0.92px;"/><path d="M282.877,508.263l19.816,8.55l-6.363,-11.717l-13.453,3.167Z" style="fill:#510100;"/><path d="M264.592,519.296l2.142,-7.232l-22.968,-8.768l20.826,16Z" style="fill:none;stroke:#833723;stroke-width:0.92px;"/><path d="M264.592,519.296l2.142,-7.232l-22.968,-8.768l20.826,16Z" style="fill:#843723;fill-opacity:0.996078;"/><path d="M277.179,503.358l-10.445,8.706l-22.968,-8.768l33.413,0.062Z" style="fill:none;stroke:#7f311b;stroke-width:0.92px;"/><path d="M277.179,503.358l-10.445,8.706l-22.968,-8.768l33.413,0.062Z" style="fill:#7f311b;fill-opacity:0.996078;"/><path d="M264.592,519.296l21.697,6.425l16.404,-8.908l-19.816,-8.55l-16.143,3.801l-2.142,7.232Z" style="fill:none;stroke:#6e2013;stroke-width:0.92px;"/><path d="M264.592,519.296l21.697,6.425l16.404,-8.908l-19.816,-8.55l-16.143,3.801l-2.142,7.232Z" style="fill:#6e2013;fill-opacity:0.996078;"/><path d="M243.766,503.296l33.413,0.062l19.151,1.738l-7.434,-8.101l-32.979,-4.85l-12.151,11.151Z" style="fill:none;stroke:#8b351b;stroke-width:0.92px;"/><path d="M243.766,503.296l33.413,0.062l19.151,1.738l-7.434,-8.101l-32.979,-4.85l-12.151,11.151Z" style="fill:#8b351b;"/><path d="M295.957,476.471l-12.151,11.15l5.09,9.374l26.789,-6.548l-18.698,-13.247l-1.03,-0.729Z" style="fill:none;stroke:#ffcbae;stroke-width:0.92px;"/><path d="M295.957,476.471l-12.151,11.15l5.09,9.374l26.789,-6.548l-18.698,-13.247l-1.03,-0.729Z" style="fill:#ffcbae;"/><path d="M255.917,492.145l32.979,4.85l-5.09,-9.374l-15.737,-6.626l-12.152,11.15Z" style="fill:none;stroke:#fea689;stroke-width:0.92px;"/><path d="M255.917,492.145l32.979,4.85l-5.09,-9.374l-15.737,-6.626l-12.152,11.15Z" style="fill:#fea689;"/><path d="M295.957,476.471l-27.888,4.524l15.737,6.626l12.151,-11.15Z" style="fill:none;stroke:#ffaa8b;stroke-width:0.92px;"/><path d="M295.957,476.471l-27.888,4.524l15.737,6.626l12.151,-11.15Z" style="fill:#ffaa8b;"/><path d="M300.535,417.846l32.545,9.638l3.01,-16.808l-19.334,-2.553l-16.624,-2.196l0.403,11.919Z" style="fill:none;stroke:#964a26;stroke-width:0.92px;"/><path d="M300.535,417.846l32.545,9.638l3.01,-16.808l-19.334,-2.553l-16.624,-2.196l0.403,11.919Z" style="fill:#843820;"/><path d="M316.756,408.123l19.334,2.553l4.284,-14.464l-8.039,-25.979l-15.579,37.89Z" style="fill:none;stroke:#742715;stroke-width:0.92px;"/><path d="M316.756,408.123l19.334,2.553l4.284,-14.464l-8.039,-25.979l-15.579,37.89Z" style="fill:#68200b;"/><path d="M273.346,390.129l14.887,13.156l2.043,-15.507l-14.99,-10.841l-1.94,13.192Z" style="fill:none;stroke:#6e3719;stroke-width:0.92px;"/><path d="M273.346,390.129l14.887,13.156l2.043,-15.507l-14.99,-10.841l-1.94,13.192Z" style="fill:#6e3719;fill-opacity:0.996078;"/><path d="M296.656,444.229l36.424,-16.745l-32.545,-9.638l-3.879,26.383Z" style="fill:none;stroke:#964a26;stroke-width:0.92px;"/><path d="M296.656,444.229l36.424,-16.745l-32.545,-9.638l-3.879,26.383Z" style="fill:#ffe8cd;"/><path d="M287.685,461.238l8.971,-17.009l3.879,-26.383l-0.403,-11.919l-6.406,2.502l-25.657,72.566l19.616,-19.757Z" style="fill:none;stroke:#fec6ac;stroke-width:0.92px;"/><path d="M287.685,461.238l8.971,-17.009l3.879,-26.383l-0.403,-11.919l-6.406,2.502l-25.657,72.566l19.616,-19.757Z" style="fill:#ffc7ad;fill-opacity:0.996078;"/><path d="M268.069,480.995l25.657,-72.566l-0.001,0l-25.656,72.566Z" style="fill:none;stroke:#fec6ac;stroke-width:0.92px;"/><path d="M268.069,480.995l25.657,-72.566l-0.001,0l-25.656,72.566Z" style="fill:#ffc7ad;fill-opacity:0.996078;"/><path d="M300.132,405.927l16.624,2.196l-1.033,-32.724l-15.591,30.528Z" style="fill:none;stroke:#8b3f27;stroke-width:0.92px;"/><path d="M300.132,405.927l16.624,2.196l-1.033,-32.724l-15.591,30.528Z" style="fill:#8b3f26;"/><path d="M300.132,405.927l15.591,-30.528l-16.757,6.219l1.166,24.309Z" style="fill:none;stroke:#9e5137;stroke-width:0.92px;"/><path d="M300.132,405.927l15.591,-30.528l-16.757,6.219l1.166,24.309Z" style="fill:#9e5137;"/><path d="M290.276,387.778l9.856,18.149l-1.166,-24.309l-8.69,6.16Z" style="fill:none;stroke:#febda2;stroke-width:0.92px;"/><path d="M290.276,387.778l9.856,18.149l-1.166,-24.309l-8.69,6.16Z" style="fill:#ffbea3;fill-opacity:0.996078;"/><path d="M275.286,376.937l14.99,10.841l8.69,-6.16l-15.091,-9.629l-8.589,4.948Z" style="fill:none;stroke:#f0aa8f;stroke-width:0.92px;"/><path d="M275.286,376.937l14.99,10.841l8.69,-6.16l-15.091,-9.629l-8.589,4.948Z" style="fill:#f1ab90;fill-opacity:0.996078;"/><path d="M332.335,370.233l19.151,1.738l-15.338,-6.248l-3.813,4.51Z" style="fill:none;stroke:#4c0901;stroke-width:0.92px;"/><path d="M332.335,370.233l19.151,1.738l-15.338,-6.248l-3.813,4.51Z" style="fill:#4c0901;"/><path d="M298.966,381.618l16.757,-6.219l-16.966,-5.312l0.209,11.531Z" style="fill:none;stroke:#7d311a;stroke-width:0.92px;"/><path d="M298.966,381.618l16.757,-6.219l-16.966,-5.312l0.209,11.531Z" style="fill:#7d311a;"/><path d="M296.167,354.788l2.59,15.299l16.966,5.312l-7.701,-8.116l-11.855,-12.495Z" style="fill:none;stroke:#5d1403;stroke-width:0.92px;"/><path d="M296.167,354.788l2.59,15.299l16.966,5.312l-7.701,-8.116l-11.855,-12.495Z" style="fill:#5d1403;"/><path d="M321.552,358.725l-13.53,8.558l7.701,8.116l5.829,-16.674Z" style="fill:none;stroke:#7a3324;stroke-width:0.92px;"/><path d="M321.552,358.725l-13.53,8.558l7.701,8.116l5.829,-16.674Z" style="fill:#813423;"/><path d="M296.167,354.788l25.385,3.937l-13.53,8.558l-11.855,-12.495Z" style="fill:none;stroke:#581100;stroke-width:0.92px;"/><path d="M296.167,354.788l25.385,3.937l-13.53,8.558l-11.855,-12.495Z" style="fill:#581100;"/><path d="M321.552,358.725l-3.756,-10.05l-21.629,6.113l25.385,3.937Z" style="fill:none;stroke:#68240e;stroke-width:0.92px;"/><path d="M321.552,358.725l-3.756,-10.05l-21.629,6.113l25.385,3.937Z" style="fill:#68240f;"/><path d="M336.148,365.723l-18.352,-17.048l3.756,10.05l10.783,11.508l3.813,-4.51Z" style="fill:none;stroke:#7a3324;stroke-width:0.92px;"/><path d="M336.148,365.723l-18.352,-17.048l3.756,10.05l10.783,11.508l3.813,-4.51Z" style="fill:#7a3324;"/><path d="M365.339,361.459l-51.009,-20.22l3.466,7.436l18.352,17.048l15.338,6.248l13.853,-10.512Z" style="fill:none;stroke:#85412f;stroke-width:0.92px;"/><path d="M365.339,361.459l-51.009,-20.22l3.466,7.436l18.352,17.048l15.338,6.248l13.853,-10.512Z" style="fill:#854130;"/><path d="M365.371,361.434l-0.032,0.025l0.039,0.016l-0.007,-0.041Z" style="fill:none;stroke:#964a26;stroke-width:0.92px;"/><path d="M365.371,361.434l-0.032,0.025l0.039,0.016l-0.007,-0.041Z" style="fill:#854130;"/><path d="M283.996,371.923l14.761,-1.836l-2.59,-15.299l-12.171,17.135Z" style="fill:none;stroke:#ad6148;stroke-width:0.92px;"/><path d="M283.996,371.923l14.761,-1.836l-2.59,-15.299l-12.171,17.135Z" style="fill:#ad6148;"/><path d="M283.875,371.989l0.222,-0.029l-0.026,-0.246l-0.196,0.275Z" style="fill:none;stroke:#964a26;stroke-width:0.92px;"/><path d="M283.875,371.989l0.222,-0.029l-0.026,-0.246l-0.196,0.275Z" style="fill:#ad6148;"/><path d="M298.966,381.618l-0.209,-11.531l-14.501,1.853l-0.141,0.202l-0.018,-0.182l-0.222,0.029l15.091,9.629Z" style="fill:none;stroke:#964a26;stroke-width:0.92px;"/><path d="M298.966,381.618l-0.209,-11.531l-14.501,1.853l-0.141,0.202l-0.018,-0.182l-0.222,0.029l15.091,9.629Z" style="fill:#984c33;"/><path d="M284.097,371.96l-0.222,0.029l0.222,-0.029Z" style="fill:none;stroke:#964a26;stroke-width:0.92px;"/><path d="M284.097,371.96l-0.222,0.029l0.222,-0.029Z" style="fill:#984c33;"/><path d="M280.075,333.187l3.8,38.802l-8.589,4.948l4.789,-43.75Z" style="fill:none;stroke:#fdddbf;stroke-width:0.92px;"/><path d="M280.075,333.187l3.8,38.802l-8.589,4.948l4.789,-43.75Z" style="fill:#ffdfc1;fill-opacity:0.992157;"/><path d="M260.105,342.1l19.97,-8.913l-33.607,-16.2l13.637,25.113Z" style="fill:none;stroke:#100107;stroke-width:0.92px;"/><path d="M260.105,342.1l19.97,-8.913l-33.607,-16.2l13.637,25.113Z" style="fill:#230b09;"/><path d="M249.522,294.75l28.174,20.011l-25.151,-64.853l-3.023,44.842Z" style="fill:none;stroke:#964a26;stroke-width:0.92px;"/><path d="M249.522,294.75l28.174,20.011l-25.151,-64.853l-3.023,44.842Z" style="fill:#2e0c0b;"/><path d="M287.371,280.716l-9.675,34.045l36.403,25.961l-26.728,-60.006Z" style="fill:none;stroke:#ffdeb8;stroke-width:0.92px;"/><path d="M287.371,280.716l-9.675,34.045l36.403,25.961l-26.728,-60.006Z" style="fill:#ffdeb8;"/><path d="M318.237,237.373l43.789,-23.78l-83.991,-27.248l40.202,51.028Z" style="fill:none;stroke:#964a26;stroke-width:0.92px;"/><path d="M318.237,237.373l43.789,-23.78l-83.991,-27.248l40.202,51.028Z" style="fill:#100107;"/><path d="M341.787,142.554l-63.752,43.791l83.991,27.248l-20.239,-71.039Z" style="fill:none;stroke:#100107;stroke-width:0.92px;"/><path d="M341.787,142.554l-63.752,43.791l83.991,27.248l-20.239,-71.039Z" style="fill:#0d0000;"/><path d="M287.371,280.716l-9.336,-94.371l40.202,51.028l-30.866,43.343Z" style="fill:none;stroke:#100107;stroke-width:0.92px;"/><path d="M287.371,280.716l-9.336,-94.371l40.202,51.028l-30.866,43.343Z" style="fill:#100107;"/><path d="M252.545,249.908l34.826,30.808l-9.336,-94.371l-25.49,63.563Z" style="fill:none;stroke:#100107;stroke-width:0.92px;"/><path d="M252.545,249.908l34.826,30.808l-9.336,-94.371l-25.49,63.563Z" style="fill:#2e0c0b;"/><path d="M277.696,314.761l9.675,-34.045l-34.826,-30.808l25.151,64.853Z" style="fill:none;stroke:#100107;stroke-width:0.92px;"/><path d="M277.696,314.761l9.675,-34.045l-34.826,-30.808l25.151,64.853Z" style="fill:#100107;"/><path d="M245.048,236.103l7.497,13.805l25.49,-63.563l-32.987,49.758Z" style="fill:none;stroke:#100107;stroke-width:0.92px;"/><path d="M245.048,236.103l7.497,13.805l25.49,-63.563l-32.987,49.758Z" style="fill:#100107;"/><path d="M284.067,371.823l12.1,-17.035l-16.092,-21.601l3.992,38.636Z" style="fill:none;stroke:#fab59b;stroke-width:0.92px;"/><path d="M284.067,371.823l12.1,-17.035l-16.092,-21.601l3.992,38.636Z" style="fill:#fbb69c;fill-opacity:0.996078;"/><path d="M284.115,372.142l0.141,-0.202l-0.159,0.02l0.018,0.182Z" style="fill:none;stroke:#964a26;stroke-width:0.92px;"/><path d="M284.115,372.142l0.141,-0.202l-0.159,0.02l0.018,0.182Z" style="fill:#fbb69c;fill-opacity:0.996078;"/><path d="M280.075,333.187l16.092,21.601l18.163,-13.549l-36.634,-26.478l2.379,18.426Z" style="fill:none;stroke:#ffc4a5;stroke-width:0.92px;"/><path d="M280.075,333.187l16.092,21.601l18.163,-13.549l-36.634,-26.478l2.379,18.426Z" style="fill:#ffc4a5;"/><path d="M246.468,316.987l33.607,16.2l-2.379,-18.426l-28.174,-20.011l-3.054,22.237Z" style="fill:none;stroke:#100107;stroke-width:0.92px;"/><path d="M246.468,316.987l33.607,16.2l-2.379,-18.426l-28.174,-20.011l-3.054,22.237Z" style="fill:#0e0000;"/><path d="M296.167,354.788l21.629,-6.113l-3.466,-7.436l-18.163,13.549Z" style="fill:none;stroke:#964a26;stroke-width:0.92px;"/><path d="M296.167,354.788l21.629,-6.113l-3.466,-7.436l-18.163,13.549Z" style="fill:#a76246;"/><path d="M339.635,454.606l-6.555,-27.122l-36.424,16.745l42.979,10.377Z" style="fill:none;stroke:#ffedcd;stroke-width:0.92px;"/><path d="M339.635,454.606l-6.555,-27.122l-36.424,16.745l42.979,10.377Z" style="fill:#ffedcd;"/><path d="M336.197,410.633l-3.117,16.851l47.553,-7.427l-22.179,-18.49l-22.257,9.066Z" style="fill:none;stroke:#bc6a4d;stroke-width:0.92px;"/><path d="M336.197,410.633l-3.117,16.851l47.553,-7.427l-22.179,-18.49l-22.257,9.066Z" style="fill:#bc6a4d;"/><path d="M364.01,389.446l10.231,-5.556l-22.755,-11.919l12.524,17.475Z" style="fill:none;stroke:#5e1705;stroke-width:0.92px;"/><path d="M364.01,389.446l10.231,-5.556l-22.755,-11.919l12.524,17.475Z" style="fill:#5e1705;"/><path d="M339.635,454.606l40.998,-34.549l-47.553,7.427l6.555,27.122Z" style="fill:none;stroke:#ffbc97;stroke-width:0.92px;"/><path d="M339.635,454.606l40.998,-34.549l-47.553,7.427l6.555,27.122Z" style="fill:#ffbc97;"/><path d="M339.635,454.606l29.401,28.948l48.242,-56.998l-36.645,-6.499l-40.998,34.549Z" style="fill:none;stroke:#ffe4bc;stroke-width:0.92px;"/><path d="M339.635,454.606l29.401,28.948l48.242,-56.998l-36.645,-6.499l-40.998,34.549Z" style="fill:#ffe4bc;"/><path d="M315.723,375.399l16.612,-5.166l-10.783,-11.508l-5.829,16.674Z" style="fill:none;stroke:#7d3223;stroke-width:0.92px;"/><path d="M315.723,375.399l16.612,-5.166l-10.783,-11.508l-5.829,16.674Z" style="fill:#7d3223;"/><path d="M268.069,480.995l27.888,-4.524l14.899,-0.505l-23.171,-14.728l-19.616,19.757Z" style="fill:none;stroke:#f19675;stroke-width:0.92px;"/><path d="M268.069,480.995l27.888,-4.524l14.899,-0.505l-23.171,-14.728l-19.616,19.757Z" style="fill:#f19675;"/><path d="M286.289,525.721l-0.264,27.454l23.837,-0.807l9.136,-32.634l-16.305,-2.921l-16.404,8.908Z" style="fill:none;stroke:#4f1301;stroke-width:0.92px;"/><path d="M286.289,525.721l-0.264,27.454l23.837,-0.807l9.136,-32.634l-16.305,-2.921l-16.404,8.908Z" style="fill:#4f1301;"/><path d="M347.384,562.791l-28.289,-42.879l-9.233,32.456l37.522,10.423Z" style="fill:none;stroke:#faaf8f;stroke-width:0.92px;"/><path d="M347.384,562.791l-28.289,-42.879l-9.233,32.456l37.522,10.423Z" style="fill:#faaf8f;"/><path d="M346.764,648.262l-14.872,8.076l20.661,19.348l23.009,-18.412l-27.004,-9.986l-1.794,0.974Z" style="fill:none;stroke:#964a26;stroke-width:0.92px;"/><path d="M346.764,648.262l-14.872,8.076l20.661,19.348l23.009,-18.412l-27.004,-9.986l-1.794,0.974Z" style="fill:#703623;"/><path d="M415.89,692.163l11.046,-34.436l-74.383,17.959l63.337,16.477Z" style="fill:none;stroke:#964a26;stroke-width:0.92px;"/><path d="M415.89,692.163l11.046,-34.436l-74.383,17.959l63.337,16.477Z" style="fill:#240000;"/><path d="M352.553,675.686l74.383,-17.959l-51.374,-0.453l-23.009,18.412Z" style="fill:none;stroke:#5b2310;stroke-width:0.92px;"/><path d="M352.553,675.686l74.383,-17.959l-51.374,-0.453l-23.009,18.412Z" style="fill:#5b2310;"/><path d="M309.319,501.077l6.366,-10.63l-26.789,6.548l20.423,4.082Z" style="fill:none;stroke:#f9997b;stroke-width:0.92px;"/><path d="M309.319,501.077l6.366,-10.63l-26.789,6.548l20.423,4.082Z" style="fill:#f9997b;"/><path d="M302.693,516.813l-6.363,-11.717l-7.434,-8.101l20.423,4.082l-6.626,15.736Z" style="fill:none;stroke:#a6462d;stroke-width:0.92px;"/><path d="M302.693,516.813l-6.363,-11.717l-7.434,-8.101l20.423,4.082l-6.626,15.736Z" style="fill:#a6462d;"/><path d="M319.333,518.537l-3.648,-28.09l-6.366,10.63l-6.626,15.736l16.305,2.921l0.335,-1.197Z" style="fill:none;stroke:#b6533a;stroke-width:0.92px;"/><path d="M319.333,518.537l-3.648,-28.09l-6.366,10.63l-6.626,15.736l16.305,2.921l0.335,-1.197Z" style="fill:#b6533a;"/><path d="M319.333,518.537l-0.335,1.197l0.502,0.09l-0.167,-1.287Z" style="fill:none;stroke:#b6533a;stroke-width:0.92px;"/><path d="M319.333,518.537l-0.335,1.197l0.502,0.09l-0.167,-1.287Z" style="fill:#b6533a;"/><path d="M296.987,477.2l18.698,13.247l-4.829,-14.481l-14.899,0.505l1.03,0.729Z" style="fill:none;stroke:#ffaf8f;stroke-width:0.92px;"/><path d="M296.987,477.2l18.698,13.247l-4.829,-14.481l-14.899,0.505l1.03,0.729Z" style="fill:#ffaf8f;"/><path d="M232.804,263.964l16.718,30.786l3.023,-44.842l-19.741,14.056Z" style="fill:none;stroke:#100107;stroke-width:0.92px;"/><path d="M232.804,263.964l16.718,30.786l3.023,-44.842l-19.741,14.056Z" style="fill:#100107;"/><path d="M245.048,236.103l-12.244,27.861l19.741,-14.056l-7.497,-13.805Z" style="fill:none;stroke:#100107;stroke-width:0.92px;"/><path d="M245.048,236.103l-12.244,27.861l19.741,-14.056l-7.497,-13.805Z" style="fill:#2e0c0b;"/><path d="M273.726,347.78l6.349,-14.593l-19.97,8.913l13.621,5.68Z" style="fill:none;stroke:#100107;stroke-width:0.92px;"/><path d="M273.726,347.78l6.349,-14.593l-19.97,8.913l13.621,5.68Z" style="fill:#0d0000;"/><path d="M498.085,258.334l42.88,27.017l65.469,-18.789l-41.054,-65.85l-67.295,57.622Z" style="fill:none;stroke:#100107;stroke-width:0.92px;"/><path d="M498.085,258.334l42.88,27.017l65.469,-18.789l-41.054,-65.85l-67.295,57.622Z" style="fill:#0f0001;"/><path d="M435.522,231.156l62.563,27.178l67.295,-57.622l-78.245,-14.487l-51.613,44.931Z" style="fill:none;stroke:#100107;stroke-width:0.92px;"/><path d="M435.522,231.156l62.563,27.178l67.295,-57.622l-78.245,-14.487l-51.613,44.931Z" style="fill:#0e0000;"/><path d="M631.236,652.455l-87.141,94.343l-24.712,-11.578l111.853,-82.765Z" style="fill:none;stroke:#672714;stroke-width:0.92px;"/><path d="M631.236,652.455l-87.141,94.343l-24.712,-11.578l111.853,-82.765Z" style="fill:#672614;"/><path d="M544.522,645.389l-66.302,37.665l8.464,16.737l32.699,35.429l25.139,-89.831Z" style="fill:none;stroke:#652814;stroke-width:0.92px;"/><path d="M544.522,645.389l-66.302,37.665l8.464,16.737l32.699,35.429l25.139,-89.831Z" style="fill:#652814;"/><path d="M296.656,444.229l14.2,31.737l4.829,14.481l11.926,21.962l-3.802,-40.43l-27.153,-27.75Z" style="fill:none;stroke:#f59775;stroke-width:0.92px;"/><path d="M296.656,444.229l14.2,31.737l4.829,14.481l11.926,21.962l-3.802,-40.43l-27.153,-27.75Z" style="fill:#f59775;"/><path d="M312.02,600.903l17.948,12.152l0.198,-0.056l-2.145,-35.773l-16.001,23.677Z" style="fill:none;stroke:#541502;stroke-width:0.92px;"/><path d="M312.02,600.903l17.948,12.152l0.198,-0.056l-2.145,-35.773l-16.001,23.677Z" style="fill:#541602;fill-opacity:0.996078;"/><path d="M311.898,600.82l0.066,0.045l-0.034,-0.092l-0.032,0.047Z" style="fill:none;stroke:#964a26;stroke-width:0.92px;"/><path d="M311.898,600.82l0.066,0.045l-0.034,-0.092l-0.032,0.047Z" style="fill:#541602;fill-opacity:0.996078;"/><path d="M287.685,461.238l8.971,-17.009l14.2,31.737l-23.171,-14.728Z" style="fill:none;stroke:#ffb291;stroke-width:0.92px;"/><path d="M287.685,461.238l8.971,-17.009l14.2,31.737l-23.171,-14.728Z" style="fill:#ffb291;"/><path d="M319.5,519.824l0.249,-0.228l-0.416,-1.059l0.167,1.287Z" style="fill:none;stroke:#983923;stroke-width:0.92px;"/><path d="M319.5,519.824l0.249,-0.228l-0.416,-1.059l0.167,1.287Z" style="fill:#983923;"/><path d="M351.827,541.342l17.209,-57.788l-29.401,-28.948l-15.826,17.373l3.802,40.43l24.216,28.933Z" style="fill:none;stroke:#ffd4ab;stroke-width:0.92px;"/><path d="M351.827,541.342l17.209,-57.788l-29.401,-28.948l-15.826,17.373l3.802,40.43l24.216,28.933Z" style="fill:#ffd4ab;"/><path d="M288.434,557.284l5.535,10.47l58.341,-0.365l-4.926,-4.598l-58.95,-5.507Z" style="fill:none;stroke:#964a26;stroke-width:0.92px;"/><path d="M288.434,557.284l5.535,10.47l58.341,-0.365l-4.926,-4.598l-58.95,-5.507Z" style="fill:#570a00;"/><path d="M288.222,557.222l0.212,0.062l-0.073,-0.137l59.023,5.644l-37.522,-10.423l-23.81,0.806l2.17,4.048Z" style="fill:none;stroke:#964a26;stroke-width:0.92px;"/><path d="M288.222,557.222l0.212,0.062l-0.073,-0.137l59.023,5.644l-37.522,-10.423l-23.81,0.806l2.17,4.048Z" style="fill:#884330;"/><path d="M288.434,557.284l-0.073,-0.137l0.073,0.137Z" style="fill:none;stroke:#88432f;stroke-width:0.92px;"/><path d="M288.434,557.284l-0.073,-0.137l0.073,0.137Z" style="fill:#884330;"/><path d="M309.477,579.246l42.454,-12.21l-57.962,0.718l15.508,11.492Z" style="fill:none;stroke:#68190b;stroke-width:0.92px;"/><path d="M309.477,579.246l42.454,-12.21l-57.962,0.718l15.508,11.492Z" style="fill:#68190b;"/><path d="M359.435,573.805l-7.125,-6.416l-42.833,11.857l49.958,-5.441Z" style="fill:none;stroke:#6b1e08;stroke-width:0.92px;"/><path d="M359.435,573.805l-7.125,-6.416l-42.833,11.857l49.958,-5.441Z" style="fill:#6b1e09;"/><path d="M311.992,600.943l0.028,-0.04l-0.056,-0.038l0.028,0.078Z" style="fill:none;stroke:#964a26;stroke-width:0.92px;"/><path d="M311.992,600.943l0.028,-0.04l-0.056,-0.038l0.028,0.078Z" style="fill:#7e3323;fill-opacity:0.996078;"/><path d="M311.93,600.773l15.302,-23.429l-17.755,1.902l-2.028,9.173l4.481,12.354Z" style="fill:none;stroke:#7e3323;stroke-width:0.92px;"/><path d="M311.93,600.773l15.302,-23.429l-17.755,1.902l-2.028,9.173l4.481,12.354Z" style="fill:#7e3323;fill-opacity:0.996078;"/><path d="M355.998,605.633l3.437,-31.828l-21.415,2.523l-10.657,1.256l28.635,28.049Z" style="fill:none;stroke:#bb6e59;stroke-width:0.92px;"/><path d="M355.998,605.633l3.437,-31.828l-21.415,2.523l-10.657,1.256l28.635,28.049Z" style="fill:#bb6e5a;"/><path d="M330.166,612.999l25.832,-7.366l-28.869,-28.278l3.037,35.644Z" style="fill:none;stroke:#7f3220;stroke-width:0.92px;"/><path d="M330.166,612.999l25.832,-7.366l-28.869,-28.278l3.037,35.644Z" style="fill:#7f3220;"/><path d="M331.892,656.338l19.999,-10.86l13.333,-7.241l-38.542,-10.192l0.016,-0.069l-0.03,-0.007l5.224,28.369Z" style="fill:none;stroke:#ae664f;stroke-width:0.92px;"/><path d="M331.892,656.338l19.999,-10.86l13.333,-7.241l-38.542,-10.192l0.016,-0.069l-0.03,-0.007l5.224,28.369Z" style="fill:#af664f;fill-opacity:0.996078;"/><path d="M329.968,613.055l-3.27,14.921l38.526,10.261l-9.226,-32.604l-25.789,7.586l-0.241,-0.164Z" style="fill:none;stroke:#7b2e19;stroke-width:0.92px;"/><path d="M329.968,613.055l-3.27,14.921l38.526,10.261l-9.226,-32.604l-25.789,7.586l-0.241,-0.164Z" style="fill:#7b2e19;"/><path d="M330.209,613.219l-0.043,-0.22l-0.198,0.056l0.241,0.164Z" style="fill:none;stroke:#964a26;stroke-width:0.92px;"/><path d="M330.209,613.219l-0.043,-0.22l-0.198,0.056l0.241,0.164Z" style="fill:#7b2e19;"/><path d="M326.682,628.045l38.542,10.192l-38.526,-10.261l-0.016,0.069Z" style="fill:none;stroke:#964a26;stroke-width:0.92px;"/><path d="M326.682,628.045l38.542,10.192l-38.526,-10.261l-0.016,0.069Z" style="fill:#7b2e19;"/><path d="M365.224,638.237l-18.46,10.025l1.794,-0.974l27.004,9.986l-10.338,-19.037Z" style="fill:none;stroke:#994e37;stroke-width:0.92px;"/><path d="M365.224,638.237l-18.46,10.025l1.794,-0.974l27.004,9.986l-10.338,-19.037Z" style="fill:#994e37;"/><path d="M426.936,657.727l13.844,-24.805l-65.218,24.352l51.374,0.453Z" style="fill:none;stroke:#3f0d03;stroke-width:0.92px;"/><path d="M426.936,657.727l13.844,-24.805l-65.218,24.352l51.374,0.453Z" style="fill:#3f0d03;"/><path d="M477.218,681.938l-36.438,-49.016l-13.844,24.805l-11.046,34.436l61.328,-10.225Z" style="fill:none;stroke:#340c03;stroke-width:0.92px;"/><path d="M477.218,681.938l-36.438,-49.016l-13.844,24.805l-11.046,34.436l61.328,-10.225Z" style="fill:#340c03;"/><path d="M479.015,682.602l65.507,-37.213l-36.361,-43.215l-29.146,80.428Z" style="fill:none;stroke:#5d1c11;stroke-width:0.92px;"/><path d="M479.015,682.602l65.507,-37.213l-36.361,-43.215l-29.146,80.428Z" style="fill:#5d1d11;"/><path d="M375.562,657.274l65.218,-24.352l-84.782,-27.289l9.226,32.604l10.338,19.037Z" style="fill:none;stroke:#77331b;stroke-width:0.92px;"/><path d="M375.562,657.274l65.218,-24.352l-84.782,-27.289l9.226,32.604l10.338,19.037Z" style="fill:#77331b;"/><path d="M393.158,571.117c-0.769,0.279 -33.723,2.688 -33.723,2.688l-3.437,31.828l84.782,27.289l-47.622,-61.805Z" style="fill:none;stroke:#783218;stroke-width:0.92px;"/><path d="M393.158,571.117c-0.769,0.279 -33.723,2.688 -33.723,2.688l-3.437,31.828l84.782,27.289l-47.622,-61.805Z" style="fill:#783218;"/><path d="M508.161,602.174l-115.003,-31.057l47.622,61.805l67.381,-30.748Z" style="fill:none;stroke:#772c1a;stroke-width:0.92px;"/><path d="M508.161,602.174l-115.003,-31.057l47.622,61.805l67.381,-30.748Z" style="fill:#772c1a;"/><path d="M323.809,471.979l15.826,-17.373l-42.979,-10.377l27.153,27.75Z" style="fill:none;stroke:#ffd1ac;stroke-width:0.92px;"/><path d="M323.809,471.979l15.826,-17.373l-42.979,-10.377l27.153,27.75Z" style="fill:#ffd1ac;"/><path d="M351.827,541.342l-4.443,21.449l56.886,-15.915l-52.443,-5.534Z" style="fill:none;stroke:#bb7153;stroke-width:0.92px;"/><path d="M351.827,541.342l-4.443,21.449l56.886,-15.915l-52.443,-5.534Z" style="fill:#bb7053;"/><path d="M351.827,541.342l52.443,5.534l15.137,-30.886l-67.58,25.352Z" style="fill:none;stroke:#db8d66;stroke-width:0.92px;"/><path d="M351.827,541.342l52.443,5.534l15.137,-30.886l-67.58,25.352Z" style="fill:#db8d66;"/><path d="M419.407,515.99l-50.371,-32.436l-17.209,57.788l67.58,-25.352Z" style="fill:none;stroke:#db8d66;stroke-width:0.92px;"/><path d="M419.407,515.99l-50.371,-32.436l-17.209,57.788l67.58,-25.352Z" style="fill:#db8d66;"/><path d="M369.036,483.554l50.371,32.436l-2.129,-89.434l-48.242,56.998Z" style="fill:none;stroke:#d27f5a;stroke-width:0.92px;"/><path d="M369.036,483.554l50.371,32.436l-2.129,-89.434l-48.242,56.998Z" style="fill:#d27f5a;"/><path d="M417.278,426.556l-17.487,-16.903l-19.158,10.404l36.645,6.499Z" style="fill:none;stroke:#e89f78;stroke-width:0.92px;"/><path d="M417.278,426.556l-17.487,-16.903l-19.158,10.404l36.645,6.499Z" style="fill:#e89f78;"/><path d="M400.404,409.32l-0.613,0.333l17.487,16.903l28.831,-28.856l-23.751,-17.079l-21.954,28.699Z" style="fill:none;stroke:#f8ab81;stroke-width:0.92px;"/><path d="M400.404,409.32l-0.613,0.333l17.487,16.903l28.831,-28.856l-23.751,-17.079l-21.954,28.699Z" style="fill:#f8ab81;"/><path d="M446.109,397.7l30.618,-3.585l-5.124,-28.781l-49.245,15.287l23.751,17.079Z" style="fill:none;stroke:#de946f;stroke-width:0.92px;"/><path d="M446.109,397.7l30.618,-3.585l-5.124,-28.781l-49.245,15.287l23.751,17.079Z" style="fill:#de946f;"/><path d="M508.161,602.174l-88.754,-86.184l-26.249,55.127l115.003,31.057Z" style="fill:none;stroke:#823520;stroke-width:0.92px;"/><path d="M508.161,602.174l-88.754,-86.184l-26.249,55.127l115.003,31.057Z" style="fill:#823520;"/><path d="M419.407,515.99l65.493,-2.238l-4.916,-89.843l-62.706,2.647l2.129,89.434Z" style="fill:none;stroke:#964a26;stroke-width:0.92px;"/><path d="M419.407,515.99l65.493,-2.238l-4.916,-89.843l-62.706,2.647l2.129,89.434Z" style="fill:#964a26;"/><path d="M484.9,513.752l34.856,-81.574l-39.772,-8.269l4.916,89.843Z" style="fill:none;stroke:#883a27;stroke-width:0.92px;"/><path d="M484.9,513.752l34.856,-81.574l-39.772,-8.269l4.916,89.843Z" style="fill:#883b27;"/><path d="M519.756,432.178l11.468,-37.446l-54.497,-0.617l0.014,0.127l0.052,-0.005l3.191,29.672l39.772,8.269Z" style="fill:none;stroke:#2f1006;stroke-width:0.92px;"/><path d="M519.756,432.178l11.468,-37.446l-54.497,-0.617l0.014,0.127l0.052,-0.005l3.191,29.672l39.772,8.269Z" style="fill:#2f1006;"/><path d="M476.727,394.115l54.497,0.617l34.352,-28.936l-93.973,-0.462l5.124,28.781Z" style="fill:none;stroke:#270802;stroke-width:0.92px;"/><path d="M476.727,394.115l54.497,0.617l34.352,-28.936l-93.973,-0.462l5.124,28.781Z" style="fill:#270902;"/><path d="M471.603,365.334l93.973,0.462l-108.72,-27.618l14.747,27.156Z" style="fill:none;stroke:#32140c;stroke-width:0.92px;"/><path d="M471.603,365.334l93.973,0.462l-108.72,-27.618l14.747,27.156Z" style="fill:#32140c;"/><path d="M498.085,258.334l-41.229,79.844l108.72,27.618l-24.611,-80.445l-42.88,-27.017Z" style="fill:none;stroke:#230b08;stroke-width:0.92px;"/><path d="M498.085,258.334l-41.229,79.844l108.72,27.618l-24.611,-80.445l-42.88,-27.017Z" style="fill:#230b09;"/><path d="M508.161,602.174l46.154,-31.642l-69.415,-56.78l-65.493,2.238l88.754,86.184Z" style="fill:none;stroke:#81351c;stroke-width:0.92px;"/><path d="M508.161,602.174l46.154,-31.642l-69.415,-56.78l-65.493,2.238l88.754,86.184Z" style="fill:#81351c;"/><path d="M484.9,513.752l65.492,-2.238l-30.636,-79.336l-34.856,81.574Z" style="fill:none;stroke:#873a24;stroke-width:0.92px;"/><path d="M484.9,513.752l65.492,-2.238l-30.636,-79.336l-34.856,81.574Z" style="fill:#873b24;"/><path d="M550.392,511.514l9.613,-5.22l-2.142,-42.748l-38.107,-31.368l30.636,79.336Z" style="fill:none;stroke:#8b3f27;stroke-width:0.92px;"/><path d="M550.392,511.514l9.613,-5.22l-2.142,-42.748l-38.107,-31.368l30.636,79.336Z" style="fill:#8b3f27;"/><path d="M519.756,432.178l38.107,31.368l1.902,-58.48l-27.727,-10.039l-12.282,37.151Z" style="fill:none;stroke:#8d4127;stroke-width:0.92px;"/><path d="M519.756,432.178l38.107,31.368l1.902,-58.48l-27.727,-10.039l-12.282,37.151Z" style="fill:#8d4127;"/><path d="M519.756,432.178l12.282,-37.151l-0.814,-0.295l-11.468,37.446Z" style="fill:none;stroke:#964a26;stroke-width:0.92px;"/><path d="M519.756,432.178l12.282,-37.151l-0.814,-0.295l-11.468,37.446Z" style="fill:#8d4127;"/><path d="M519.383,735.22l111.853,-82.765l-86.714,-7.066l-25.139,89.831Z" style="fill:none;stroke:#652713;stroke-width:0.92px;"/><path d="M519.383,735.22l111.853,-82.765l-86.714,-7.066l-25.139,89.831Z" style="fill:#652613;"/><path d="M554.315,570.532l-3.923,-59.018l-65.492,2.238l69.415,56.78Z" style="fill:none;stroke:#80341c;stroke-width:0.92px;"/><path d="M554.315,570.532l-3.923,-59.018l-65.492,2.238l69.415,56.78Z" style="fill:#80341c;"/><path d="M554.315,570.532l-46.154,31.642l36.361,43.215l9.793,-74.857Z" style="fill:none;stroke:#6f2b12;stroke-width:0.92px;"/><path d="M554.315,570.532l-46.154,31.642l36.361,43.215l9.793,-74.857Z" style="fill:#6f2b12;"/><path d="M380.633,420.057l19.158,-10.404l0.713,-0.917l5.641,-33.068l-31.904,8.222l-10.231,5.556l16.623,30.611Z" style="fill:none;stroke:#7f321c;stroke-width:0.92px;"/><path d="M380.633,420.057l19.158,-10.404l0.713,-0.917l5.641,-33.068l-31.904,8.222l-10.231,5.556l16.623,30.611Z" style="fill:#7f321d;"/><path d="M365.334,361.216l40.811,14.452l3.427,-8.339l-45.789,-15.26l1.551,9.147Z" style="fill:none;stroke:#883a25;stroke-width:0.92px;"/><path d="M365.334,361.216l40.811,14.452l3.427,-8.339l-45.789,-15.26l1.551,9.147Z" style="fill:#883b25;"/><path d="M365.371,361.434l0.178,-0.134l-0.215,-0.084l0.044,0.259l-0.007,-0.041Z" style="fill:none;stroke:#964a26;stroke-width:0.92px;"/><path d="M365.371,361.434l0.178,-0.134l-0.215,-0.084l0.044,0.259l-0.007,-0.041Z" style="fill:#883b25;"/><path d="M365.371,361.434l0.007,0.041l0.211,-0.159l-0.04,-0.016l-0.178,0.134Z" style="fill:none;stroke:#964a26;stroke-width:0.92px;"/><path d="M365.371,361.434l0.007,0.041l0.211,-0.159l-0.04,-0.016l-0.178,0.134Z" style="fill:#883b25;"/><path d="M409.572,367.329l47.284,-29.151l-42.105,-27.493l-5.179,56.644Z" style="fill:none;stroke:#bd7350;stroke-width:0.92px;"/><path d="M409.572,367.329l47.284,-29.151l-42.105,-27.493l-5.179,56.644Z" style="fill:#bd7350;"/><path d="M363.783,352.069l45.789,15.26l5.179,-56.644l-35.334,-14.828l-15.634,56.212Z" style="fill:none;stroke:#a75d3a;stroke-width:0.92px;"/><path d="M363.783,352.069l45.789,15.26l5.179,-56.644l-35.334,-14.828l-15.634,56.212Z" style="fill:#a75d3a;"/><path d="M431.161,354.415l-21.589,12.914l-3.427,8.339l16.213,4.953l34.498,-42.443l-25.695,16.237Z" style="fill:none;stroke:#dd946b;stroke-width:0.92px;"/><path d="M431.161,354.415l-21.589,12.914l-3.427,8.339l16.213,4.953l34.498,-42.443l-25.695,16.237Z" style="fill:#dd946b;"/><path d="M414.751,310.685l42.105,27.493l41.229,-79.844l-62.563,-27.178l-20.771,79.529Z" style="fill:none;stroke:#542b23;stroke-width:0.92px;"/><path d="M414.751,310.685l42.105,27.493l41.229,-79.844l-62.563,-27.178l-20.771,79.529Z" style="fill:#542b23;"/><path d="M417.278,426.556l62.706,-2.647l-3.243,-29.667l-30.632,3.458l-28.831,28.856Z" style="fill:none;stroke:#964a26;stroke-width:0.92px;"/><path d="M417.278,426.556l62.706,-2.647l-3.243,-29.667l-30.632,3.458l-28.831,28.856Z" style="fill:#aa5a38;"/><path d="M476.741,394.242l3.243,29.667l-3.191,-29.672l-0.052,0.005Z" style="fill:none;stroke:#964a26;stroke-width:0.92px;"/><path d="M476.741,394.242l3.243,29.667l-3.191,-29.672l-0.052,0.005Z" style="fill:#aa5a38;"/><path d="M422.358,380.621l49.245,-15.287l-14.747,-27.156l-34.498,42.443Z" style="fill:none;stroke:#c57b54;stroke-width:0.92px;"/><path d="M422.358,380.621l49.245,-15.287l-14.747,-27.156l-34.498,42.443Z" style="fill:#c57b54;"/><path d="M478.588,683.781l29.573,-81.607l-67.381,30.748l37.808,50.859Z" style="fill:none;stroke:#4c0b02;stroke-width:0.92px;"/><path d="M478.588,683.781l29.573,-81.607l-67.381,30.748l37.808,50.859Z" style="fill:#4c0b02;"/><path d="M358.4,573.076l34.758,-1.959l11.112,-24.241l-56.886,15.915l11.016,10.285Z" style="fill:none;stroke:#a65a41;stroke-width:0.92px;"/><path d="M358.4,573.076l34.758,-1.959l11.112,-24.241l-56.886,15.915l11.016,10.285Z" style="fill:#a65a41;"/><path d="M316.756,408.123l15.579,-37.89l-16.612,5.166l1.033,32.724Z" style="fill:none;stroke:#742715;stroke-width:0.92px;"/><path d="M316.756,408.123l15.579,-37.89l-16.612,5.166l1.033,32.724Z" style="fill:#742715;"/><path d="M319.333,518.537l0.416,1.059l0.106,-0.097l7.756,-7.09l-11.926,-21.962l3.648,28.09Z" style="fill:none;stroke:#983923;stroke-width:0.92px;"/><path d="M319.333,518.537l0.416,1.059l0.106,-0.097l7.756,-7.09l-11.926,-21.962l3.648,28.09Z" style="fill:#983923;"/></g></g></g></svg>